<?xml version="1.0" encoding="iso-8859-1"?>
<!-- Uploaded to: SVG Repo, www.svgrepo.com, Generator: SVG Repo Mixer Tools -->
<svg fill="#000000" height="800px" width="800px" version="1.1" id="Layer_1" xmlns="http://www.w3.org/2000/svg" xmlns:xlink="http://www.w3.org/1999/xlink" 
	 viewBox="0 0 512 512" xml:space="preserve">
<g>
	<g>
		<path d="M486.013,53.08H25.987C11.658,53.08,0,64.738,0,79.067v70.773c0,14.329,11.658,25.987,25.987,25.987h460.026
			c14.329,0,25.987-11.658,25.987-25.987V79.067C512,64.738,500.342,53.08,486.013,53.08z M495.413,149.84
			c0,5.183-4.217,9.4-9.4,9.4H25.987c-5.183,0-9.4-4.217-9.4-9.4V79.067c0-5.183,4.217-9.4,9.4-9.4h460.026
			c5.183,0,9.4,4.217,9.4,9.4V149.84z"/>
	</g>
</g>
<g>
	<g>
		<path d="M90.795,114.454l11.829-11.829c3.239-3.238,3.239-8.491,0-11.728c-3.239-3.239-8.491-3.239-11.728,0l-11.829,11.829
			L67.238,90.896c-3.239-3.239-8.491-3.239-11.728,0c-3.239,3.239-3.239,8.491,0,11.728l11.829,11.829l-11.829,11.829
			c-3.239,3.239-3.239,8.491,0,11.728c1.619,1.62,3.742,2.43,5.864,2.43s4.245-0.81,5.864-2.43l11.829-11.829l11.829,11.829
			c1.619,1.62,3.742,2.43,5.864,2.43s4.245-0.81,5.864-2.43c3.239-3.239,3.239-8.491,0-11.728L90.795,114.454z"/>
	</g>
</g>
<g>
	<g>
		<path d="M161.569,114.454l11.829-11.829c3.239-3.238,3.239-8.491,0-11.728c-3.239-3.239-8.491-3.239-11.728,0l-11.829,11.829
			l-11.829-11.829c-3.239-3.239-8.491-3.239-11.728,0c-3.239,3.239-3.239,8.491,0,11.728l11.829,11.829l-11.829,11.829
			c-3.239,3.239-3.239,8.491,0,11.728c1.619,1.619,3.742,2.43,5.864,2.43c2.122,0,4.245-0.81,5.864-2.43l11.829-11.829
			l11.829,11.829c1.619,1.619,3.742,2.43,5.864,2.43c2.122,0,4.245-0.81,5.864-2.43c3.239-3.239,3.239-8.491,0-11.728
			L161.569,114.454z"/>
	</g>
</g>
<g>
	<g>
		<path d="M232.342,114.454l11.829-11.829c3.239-3.238,3.239-8.491,0-11.728c-3.239-3.239-8.491-3.239-11.728,0l-11.829,11.829
			l-11.829-11.829c-3.239-3.239-8.491-3.239-11.728,0c-3.239,3.239-3.239,8.491,0,11.728l11.829,11.829l-11.829,11.829
			c-3.239,3.239-3.239,8.491,0,11.728c1.619,1.619,3.742,2.43,5.864,2.43c2.122,0,4.245-0.81,5.864-2.43l11.829-11.829
			l11.829,11.829c1.619,1.619,3.742,2.43,5.864,2.43c2.122,0,4.245-0.81,5.864-2.43c3.239-3.239,3.239-8.491,0-11.728
			L232.342,114.454z"/>
	</g>
</g>
<g>
	<g>
		<path d="M303.115,114.454l11.829-11.829c3.239-3.238,3.239-8.491,0-11.728c-3.239-3.239-8.491-3.239-11.728,0l-11.829,11.829
			l-11.829-11.829c-3.239-3.239-8.491-3.239-11.728,0c-3.239,3.239-3.239,8.491,0,11.728l11.829,11.829l-11.829,11.829
			c-3.239,3.239-3.239,8.491,0,11.728c1.619,1.619,3.742,2.43,5.864,2.43s4.245-0.81,5.864-2.43l11.829-11.829l11.829,11.829
			c1.619,1.619,3.742,2.43,5.864,2.43c2.122,0,4.245-0.81,5.864-2.43c3.239-3.239,3.239-8.491,0-11.728L303.115,114.454z"/>
	</g>
</g>
<g>
	<g>
		<path d="M385.717,126.283l-11.829-11.829l11.829-11.829c3.239-3.238,3.239-8.491,0-11.728c-3.239-3.239-8.491-3.239-11.728,0
			l-11.829,11.829l-11.829-11.829c-3.239-3.239-8.491-3.239-11.728,0c-3.239,3.239-3.239,8.491,0,11.728l11.829,11.829
			l-11.829,11.829c-3.239,3.239-3.239,8.491,0,11.728c1.619,1.619,3.742,2.43,5.864,2.43c2.122,0,4.245-0.81,5.864-2.43
			l11.829-11.829l11.829,11.829c1.619,1.619,3.742,2.43,5.864,2.43c2.122,0,4.245-0.81,5.864-2.43
			C388.956,134.772,388.956,129.521,385.717,126.283z"/>
	</g>
</g>
<g>
	<g>
		<path d="M444.661,114.454l11.829-11.829c3.239-3.238,3.239-8.491,0-11.728c-3.239-3.239-8.491-3.239-11.728,0l-11.829,11.829
			l-11.829-11.829c-3.239-3.239-8.491-3.239-11.728,0c-3.239,3.239-3.239,8.491,0,11.728l11.829,11.829l-11.829,11.829
			c-3.239,3.239-3.239,8.491,0,11.728c1.619,1.619,3.742,2.43,5.864,2.43c2.122,0,4.245-0.81,5.864-2.43l11.829-11.829
			l11.829,11.829c1.619,1.619,3.742,2.43,5.864,2.43c2.122,0,4.245-0.81,5.864-2.43c3.239-3.239,3.239-8.491,0-11.728
			L444.661,114.454z"/>
	</g>
</g>
<g>
	<g>
		<path d="M486.013,194.626H25.987C11.658,194.626,0,206.284,0,220.613v70.773c0,14.329,11.658,25.987,25.987,25.987h460.026
			c14.329,0,25.987-11.658,25.987-25.987v-70.773C512,206.284,500.342,194.626,486.013,194.626z M495.413,291.387
			c0,5.183-4.217,9.4-9.4,9.4H25.987c-5.183,0-9.4-4.217-9.4-9.4v-70.773c0-5.183,4.217-9.4,9.4-9.4h460.026
			c5.183,0,9.4,4.217,9.4,9.4V291.387z"/>
	</g>
</g>
<g>
	<g>
		<path d="M486.013,336.173H344.466c-14.329,0-25.987,11.658-25.987,25.987v70.773c0,14.329,11.658,25.987,25.987,25.987h141.546
			c14.329,0,25.987-11.658,25.987-25.987V362.16C512,347.83,500.342,336.173,486.013,336.173z M495.413,432.933
			c0,5.183-4.217,9.4-9.4,9.4H344.466c-5.183,0-9.4-4.216-9.4-9.4V362.16c0-5.183,4.216-9.4,9.4-9.4h141.546
			c5.183,0,9.4,4.216,9.4,9.4V432.933z"/>
	</g>
</g>
<g>
	<g>
		<path d="M90.795,256l11.829-11.829c3.239-3.238,3.239-8.491,0-11.728c-3.239-3.239-8.491-3.239-11.728,0l-11.829,11.829
			l-11.829-11.829c-3.239-3.239-8.491-3.239-11.728,0c-3.239,3.239-3.239,8.491,0,11.728L67.339,256l-11.829,11.829
			c-3.239,3.239-3.239,8.491,0,11.728c1.619,1.62,3.742,2.43,5.864,2.43s4.245-0.81,5.864-2.43l11.829-11.829l11.829,11.829
			c1.619,1.62,3.742,2.43,5.864,2.43s4.245-0.81,5.864-2.43c3.239-3.239,3.239-8.491,0-11.728L90.795,256z"/>
	</g>
</g>
<g>
	<g>
		<path d="M161.569,256l11.829-11.829c3.239-3.238,3.239-8.491,0-11.728c-3.239-3.239-8.491-3.239-11.728,0l-11.829,11.829
			l-11.829-11.829c-3.239-3.239-8.491-3.239-11.728,0c-3.239,3.239-3.239,8.491,0,11.728L138.112,256l-11.829,11.829
			c-3.239,3.239-3.239,8.491,0,11.728c1.619,1.619,3.742,2.43,5.864,2.43c2.122,0,4.245-0.809,5.864-2.43l11.829-11.829
			l11.829,11.829c1.619,1.619,3.742,2.43,5.864,2.43c2.122,0,4.245-0.809,5.864-2.43c3.239-3.239,3.239-8.491,0-11.728L161.569,256z
			"/>
	</g>
</g>
<g>
	<g>
		<path d="M232.342,256l11.829-11.829c3.239-3.238,3.239-8.491,0-11.728c-3.239-3.239-8.491-3.239-11.728,0l-11.829,11.829
			l-11.829-11.829c-3.239-3.239-8.491-3.239-11.728,0c-3.239,3.239-3.239,8.491,0,11.728L208.885,256l-11.829,11.829
			c-3.239,3.239-3.239,8.491,0,11.728c1.619,1.619,3.742,2.43,5.864,2.43c2.122,0,4.245-0.809,5.864-2.43l11.829-11.829
			l11.829,11.829c1.619,1.619,3.742,2.43,5.864,2.43c2.122,0,4.245-0.809,5.864-2.43c3.239-3.239,3.239-8.491,0-11.728L232.342,256z
			"/>
	</g>
</g>
<g>
	<g>
		<path d="M303.115,256l11.829-11.829c3.239-3.238,3.239-8.491,0-11.728c-3.239-3.239-8.491-3.239-11.728,0l-11.829,11.829
			l-11.829-11.829c-3.239-3.239-8.491-3.239-11.728,0c-3.239,3.239-3.239,8.491,0,11.728L279.658,256l-11.829,11.829
			c-3.239,3.239-3.239,8.491,0,11.728c1.619,1.619,3.742,2.43,5.864,2.43s4.245-0.809,5.864-2.43l11.829-11.829l11.829,11.829
			c1.619,1.619,3.742,2.43,5.864,2.43c2.122,0,4.245-0.809,5.864-2.43c3.239-3.239,3.239-8.491,0-11.728L303.115,256z"/>
	</g>
</g>
<g>
	<g>
		<path d="M388.7,371.559c-14.329,0-25.987,11.658-25.987,25.987c0,14.329,11.658,25.987,25.987,25.987
			c14.329,0,25.987-11.658,25.987-25.987C414.687,383.217,403.029,371.559,388.7,371.559z M388.7,406.946
			c-5.183,0-9.4-4.216-9.4-9.4s4.216-9.4,9.4-9.4s9.4,4.217,9.4,9.4S393.883,406.946,388.7,406.946z"/>
	</g>
</g>
<g>
	<g>
		<path d="M453.508,397.546l11.829-11.829c3.239-3.238,3.239-8.491,0-11.728c-3.239-3.239-8.491-3.239-11.728,0l-11.829,11.829
			l-0.553-0.553v-5.412c0-4.58-3.713-8.294-8.294-8.294c-4.58,0-8.294,3.713-8.294,8.294v35.387c0,4.58,3.713,8.294,8.294,8.294
			c4.58,0,8.294-3.713,8.294-8.294v-6.518l12.382,12.382c1.619,1.619,3.742,2.43,5.864,2.43c2.122,0,4.245-0.809,5.864-2.43
			c3.239-3.239,3.239-8.491,0-11.728L453.508,397.546z"/>
	</g>
</g>
</svg>